<?xml version="1.0" encoding="UTF-8"?>
<svg id="Lager_2" data-name="Lager 2" xmlns="http://www.w3.org/2000/svg" viewBox="0 0 246.25 309.19">
  <defs>
    <style>
      .cls-1 {
        fill: #8c883b;
      }

      .cls-2 {
        stroke: #d1d119;
      }

      .cls-2, .cls-3, .cls-4, .cls-5 {
        stroke-miterlimit: 10;
      }

      .cls-2, .cls-4 {
        stroke-width: 10px;
      }

      .cls-2, .cls-5 {
        fill: none;
      }

      .cls-6 {
        fill: #6a6a20;
      }

      .cls-3 {
        fill: #efe865;
      }

      .cls-3, .cls-5 {
        stroke: #8c883b;
        stroke-width: 2px;
      }

      .cls-7 {
        fill: #b9144c;
      }

      .cls-4 {
        stroke: #b9144c;
      }
    </style>
  </defs>
  <g id="Lager_1-2" data-name="Lager 1">
    <g>
      <polygon class="cls-4" points="188.82 115.41 177.59 119.18 176.98 115.03 188.82 115.41"/>
      <polygon class="cls-7" points="236.77 98.12 169.36 84.69 171.28 111.95 236.77 98.12"/>
      <polygon class="cls-7" points="21.6 36.24 101.32 58.53 80.76 94.14 21.6 36.24"/>
      <path class="cls-7" d="m120.33,0l-38.14,80.57h76.28L120.33,0Z"/>
      <polygon class="cls-7" points="222.11 40.28 142.39 62.57 162.95 98.18 222.11 40.28"/>
      <polygon class="cls-7" points="13.44 98.12 80.84 84.69 78.93 111.95 13.44 98.12"/>
      <polygon class="cls-4" points="61.97 114.85 73.2 118.62 73.81 114.46 61.97 114.85"/>
      <path d="m176.87,122.14c8.6-2.99,17.21-5.98,25.81-8.96l-27.94-1.96,2.41-7.06,30.27-7.03-41.27-11.16,11.62-9.48,30.73-29.96-37.3,16.44,5.81-5.59-31.18,7.95-20.48-37.3-2.14,17.58-3.97-35.77-25.38,54.73-62.06-21.71,40.2,29.2-10.24-1.68,16.97,17.73-6.27,5.35-24.46,7.22,28.13,6.38-6.45,6.73-24.74-1.84,22.97,7.34,7.02,2.39c.56-.97,1.12-1.94,1.68-2.9"/>
    </g>
    <g>
      <circle class="cls-2" cx="123.77" cy="107.16" r="30.15"/>
      <polygon class="cls-3" points="123.12 307.34 244.42 118.64 1.83 118.64 123.12 307.34"/>
      <polyline class="cls-5" points="92.97 118.64 92.97 147.06 56.62 147.06 74.8 168.61 62.12 181.54 88.72 204.76 69.22 216.2 104.77 217.49 123.12 248.86 123.12 277.3 103.82 277.3 142.43 277.3"/>
      <polyline class="cls-5" points="153.2 118.64 153.2 147.06 189.55 147.06 171.37 168.61 184.04 181.54 157.44 204.76 177.08 216.62 141.39 217.49 123.04 248.86 123.04 277.3 142.35 277.3 103.74 277.3"/>
      <polyline class="cls-5" points="113.95 118.64 113.95 146.6 132.81 146.6 132.81 118.64"/>
      <polyline class="cls-5" points="214.38 118.64 214.38 125.96 226.3 125.96 216.67 142.3 225.11 148.68"/>
      <polyline class="cls-5" points="32.99 118.55 32.99 125.88 21.07 125.88 30.7 142.22 22.27 148.6"/>
      <path class="cls-5" d="m77.54,187.96c-.82-.67-1.62-1.49-1.43-2.15.59-2.02,10.3-1.65,18.34.57,3.19.88,11.93,3.29,18.23,8.83.61.54,1.74,1.58,3.55,2.52.69.36,5.53,2.79,10.78,1.49,3-.74,4.73-2.36,6.88-4.13,7.55-6.21,12.03-9.89,17.89-11.12,2.68-.56,13.46-2.26,16.28-2.52.14-.01.71-.06,1.32-.41,1-.57,1.92-1.85,1.81-3.05-.06-.71-.49-1.29-1-1.75-.88-.79-2.09-1.11-3.26-1-6.43.6-11.61.03-15.14-.6-5.25-.94-11.01-1.97-17.2-5.73-3.74-2.28-5.77-4.43-9.86-4.82-3.26-.31-5.82.69-8.03,1.61-12.48,5.2-16.01,8.98-22.7,11.01-2.91.88-7.27,1.69-13.16.94-2.25-.29-4.41,1.31-4.59,3.57-.08,1,.26,1.89,1.46,2.3,7.14,2.38,12.69.56,16.05-.46,6.69-2.03,10.22-5.8,22.7-11.01,2.2-.92,4.77-1.92,8.03-1.61,4.09.39,6.11,2.53,9.86,4.82,6.18,3.77,11.95,4.79,17.2,5.73,3.77.67,9.45,1.28,16.51.46"/>
      <line class="cls-6" x1="162.9" y1="181.82" x2="169.38" y2="181.04"/>
      <path class="cls-5" d="m76.8,187.41c2.65,2,6.75,4.62,12.27,6.31,4.38,1.34,4.85.62,8.83,2.06,6.02,2.19,6.63,4.45,13.41,7.11,3.38,1.32,6.14,1.91,7.68,2.18,3.07.54,6.8,1.16,11.24.11.81-.19,2.95-.7,5.5-1.95,4.54-2.23,5.92-4.61,9.97-7.8,3.2-2.51,5.41-4.22,8.83-5.27,4.81-1.48,6.87-.06,11.16-2.2,2.51-1.26,5.44-3.57,5.01-4.91-.38-1.18-3.31-1.22-5.62-1.26-3.31-.05-6.05.5-7.95,1.03"/>
      <path d="m91.73,184.66c1.42-.46,2.83-.92,4.25-1.38l3.97-1.75c1.93-1.13,3.86-2.25,5.79-3.38,2.64-1.32,5.27-2.64,7.91-3.96,1.86-.76,3.73-1.53,5.59-2.29.91-.16,1.82-.31,2.72-.47.58-.04,1.17-.09,1.75-.13.77.15,1.54.29,2.3.44l2.06.54.99.76.98.46,2.15,1.53,1.83,1.22,3.29,1.8c.59.24,1.18.47,1.78.71.53.21,1.06.42,1.59.63l2.45.76,2.62.73c1.01.22,2.03.44,3.04.66,1.16.16,2.31.32,3.47.49.74.14,1.47.29,2.21.43l-5.14,1.29-2.69,1.3-6.4,3.82-5.43,4.36-4.75,3.67-2.16,1.21c-.58.16-1.15.31-1.73.47h-4.28l-2.45-.6-3.26-1-1.93-1.22-5.89-4.54-4.2-2.41-3.29-1.22-3.44-1.15c-.64-.24-1.3-.47-1.99-.69-1.29-.42-2.53-.77-3.72-1.07Z"/>
      <circle class="cls-1" cx="123.12" cy="184.26" r="6.94"/>
      <circle cx="123.12" cy="184.26" r="3.21"/>
    </g>
  </g>
</svg>