<?xml version="1.0" encoding="utf-8"?>
<!-- Generator: Adobe Illustrator 27.4.0, SVG Export Plug-In . SVG Version: 6.00 Build 0)  -->
<svg version="1.1" id="Lager_1" xmlns="http://www.w3.org/2000/svg" xmlns:xlink="http://www.w3.org/1999/xlink" x="0px" y="0px"
	 viewBox="0 0 595.3 841.9" style="enable-background:new 0 0 595.3 841.9;" xml:space="preserve">
<style type="text/css">
	.st0{fill:#010202;stroke:#D1D119;stroke-width:8;stroke-miterlimit:10;}
	.st1{fill:#010202;}
	.st2{fill:#B9144C;}
	.st3{fill:none;stroke:#D1D119;stroke-miterlimit:10;}
	.st4{fill:#D1D119;}
	.st5{fill:#EFE865;}
	.st6{fill:#8C883B;}
	.st7{fill:none;}
	.st8{enable-background:new    ;}
</style>
<path class="st0" d="M702.1,220.2"/>
<g>
	<g>
		<g>
			<g>
				<polygon class="st1" points="363.3,262.5 352.1,266.3 351.5,262.1 				"/>
			</g>
		</g>
		<g>
			<g>
				<polygon class="st2" points="348,272.9 345.7,256.9 391.2,258.4 				"/>
			</g>
		</g>
	</g>
	<g>
		<g>
			<g>
				<path class="st3" d="M245.3,159.1"/>
			</g>
		</g>
	</g>
	<g>
		<g>
			<g>
				<polygon class="st2" points="411.3,245.2 343.9,231.8 345.8,259 				"/>
			</g>
		</g>
	</g>
	<g>
		<g>
			<g>
				<polygon class="st2" points="196.1,183.3 275.8,205.6 255.3,241.2 				"/>
			</g>
		</g>
	</g>
	<g>
		<g>
			<g>
				<path class="st2" d="M294.8,147.1l-38.1,80.6H333L294.8,147.1z"/>
			</g>
		</g>
	</g>
	<g>
		<g>
			<g>
				<polygon class="st2" points="396.6,187.4 316.9,209.7 337.5,245.3 				"/>
			</g>
		</g>
	</g>
	<g>
		<g>
			<g>
				<polygon class="st2" points="187.9,245.2 255.4,231.8 253.4,259 				"/>
			</g>
		</g>
	</g>
	<g>
		<g>
			<g>
				<polygon class="st1" points="236.5,261.9 247.7,265.7 248.3,261.6 				"/>
			</g>
		</g>
		<g>
			<g>
				<polygon class="st2" points="251.8,272.4 208.6,257.8 254.1,256.4 				"/>
			</g>
		</g>
	</g>
	<g>
		<g>
			<g>
				<path class="st1" d="M351.4,269.2c8.6-3,17.2-6,25.8-9l-27.9-2l2.4-7.1l30.3-7l-41.3-11.2l11.6-9.5l30.7-30l-37.3,16.4l5.8-5.6
					l-31.2,7.9l-20.5-37.3l-2.1,17.6l-4-35.8l-25.4,54.7l-62.1-21.7l40.2,29.2l-10.2-1.7l17,17.7l-6.3,5.4l-24.5,7.2l28.1,6.4
					l-6.4,6.7l-24.7-1.8l23,7.3l7,2.4c0.6-1,1.1-1.9,1.7-2.9"/>
			</g>
		</g>
	</g>
</g>
<g>
	<g>
		<g>
			<g>
				<path class="st4" d="M298.3,289.4c-19.4,0-35.2-15.8-35.2-35.1s15.8-35.1,35.2-35.1s35.1,15.8,35.1,35.1
					S317.7,289.4,298.3,289.4z M298.3,229.1c-13.9,0-25.2,11.3-25.2,25.1c0,13.9,11.3,25.1,25.2,25.1c13.9,0,25.1-11.3,25.1-25.1
					C323.4,240.4,312.1,229.1,298.3,229.1z"/>
			</g>
		</g>
	</g>
	<g>
		<g>
			<g>
				<polygon class="st5" points="297.6,454.4 418.9,265.7 176.4,265.7 				"/>
			</g>
		</g>
		<g>
			<g>
				<path class="st6" d="M297.6,456.3L174.5,264.7h246.2L297.6,456.3z M178.2,266.7l119.5,185.9l119.5-185.9H178.2z"/>
			</g>
		</g>
	</g>
	<g>
		<g>
			<g>
				<polygon class="st6" points="317,425.4 278.3,425.4 278.3,423.4 296.6,423.4 296.6,396.2 278.7,365.6 240.3,364.2 261.5,351.7 
					235.2,328.7 248,315.7 229,293.1 266.5,293.1 266.5,265.7 268.5,265.7 268.5,295.1 233.3,295.1 250.7,315.8 238.1,328.6 
					264.9,352 247.2,362.4 279.9,363.6 298.6,395.7 298.6,423.4 317,423.4 				"/>
			</g>
		</g>
	</g>
	<g>
		<g>
			<g>
				<polygon class="st6" points="316.9,425.4 278.2,425.4 278.2,423.4 296.6,423.4 296.6,395.7 315.3,363.6 348.1,362.8 330.3,352 
					357.1,328.6 344.5,315.8 361.9,295.1 326.7,295.1 326.7,265.7 328.7,265.7 328.7,293.1 366.2,293.1 347.2,315.7 360,328.7 
					333.7,351.7 355.1,364.6 316.5,365.6 298.6,396.2 298.6,423.4 316.9,423.4 				"/>
			</g>
		</g>
	</g>
	<g>
		<g>
			<g>
				<polygon class="st6" points="308.3,294.7 287.5,294.7 287.5,265.7 289.5,265.7 289.5,292.7 306.3,292.7 306.3,265.7 
					308.3,265.7 				"/>
			</g>
		</g>
	</g>
	<g>
		<g>
			<g>
				<polygon class="st6" points="399,296.6 389.9,289.7 399.1,274.1 387.9,274.1 387.9,265.7 389.9,265.7 389.9,272.1 402.6,272.1 
					392.5,289.1 400.2,295 				"/>
			</g>
		</g>
	</g>
	<g>
		<g>
			<g>
				<polygon class="st6" points="197.4,296.5 196.2,294.9 203.9,289.1 193.8,272 206.5,272 206.5,265.6 208.5,265.6 208.5,274 
					197.3,274 206.5,289.6 				"/>
			</g>
		</g>
	</g>
	<g>
		<g>
			<g>
				<path class="st6" d="M298.4,347.7c-4,0-7.3-1.6-8.1-2c-1.8-1-3-2-3.7-2.6l-0.1-0.1c-6.1-5.4-14.6-7.7-17.8-8.6
					c-3.2-0.9-6.3-1.4-9.1-1.7c-1,0-2.1,0-3.3-0.2c-2.5,0-4.2,0.2-4.7,0.6c0.1,0.2,0.3,0.5,1.1,1.1l-1.3,1.5
					c-0.9-0.8-2.1-1.9-1.8-3.2c0.2-0.6,0.7-1.1,1.5-1.4c-1-0.6-1.5-1.7-1.4-3c0.1-1.3,0.7-2.5,1.8-3.4c1.1-0.9,2.5-1.3,3.9-1.1
					c4.6,0.6,8.8,0.3,12.7-0.9c3.2-1,5.7-2.4,8.8-4.2c3.3-1.9,7.4-4.2,13.8-6.8c2.6-1.1,5.2-2,8.5-1.7c3.3,0.3,5.4,1.7,7.8,3.4
					c0.8,0.5,1.6,1.1,2.5,1.6c6,3.7,11.5,4.6,16.8,5.6c4.8,0.9,9.8,1.1,14.9,0.6c1.5-0.1,3,0.3,4,1.3c0.8,0.7,1.3,1.5,1.3,2.4
					c0.2,1.7-1,3.3-2.3,4c-0.7,0.4-1.4,0.5-1.7,0.5c-0.3,0-0.6,0.1-0.9,0.1c-3.6,0.4-12.8,1.9-15.3,2.4c-5.6,1.2-10.1,4.8-17.5,10.9
					l-0.6,0.5c-1.9,1.6-3.7,3.1-6.7,3.8C300.6,347.6,299.4,347.7,298.4,347.7z M266.2,331.8c1.1,0.2,2.1,0.5,3,0.7
					c3.3,0.9,12.2,3.4,18.6,9l0.1,0.1c0.6,0.5,1.6,1.5,3.3,2.3c0.8,0.4,5.3,2.6,10.1,1.4c2.5-0.6,4.1-1.9,5.9-3.4l0.6-0.5
					c7.6-6.3,12.2-10,18.3-11.3c0.6-0.1,1.7-0.3,3-0.5c-1.1-0.1-2.1-0.3-3.2-0.5c-5.3-0.9-11.2-2-17.5-5.9c-0.9-0.6-1.8-1.1-2.5-1.7
					c-2.4-1.6-4.1-2.8-6.9-3c-2.9-0.3-5.2,0.6-7.5,1.5c-6.3,2.6-10.3,4.9-13.5,6.7c-3.3,1.8-5.9,3.3-9.3,4.3l-0.3,0.1
					C267.7,331.4,267,331.6,266.2,331.8z M256.5,330.6c1,0,2.1,0.1,3.2,0.2c3.3-0.1,5.9-0.9,8-1.5l0.3-0.1c3.2-1,5.7-2.4,8.9-4.2
					c3.3-1.9,7.4-4.2,13.7-6.8c1.9-0.8,4.9-2,8.5-1.7c3.3,0.3,5.4,1.7,7.8,3.4c0.8,0.5,1.6,1.1,2.5,1.6c6,3.7,11.5,4.6,16.8,5.6
					c5.1,0.9,10.2,1.1,15.4,0.6c0.3,0,0.6-0.1,0.9-0.1c0.1,0,0.5-0.1,0.9-0.3c0.7-0.4,1.4-1.3,1.3-2.1c0-0.4-0.3-0.7-0.7-1.1
					c-0.6-0.6-1.5-0.8-2.5-0.7c-5.2,0.5-10.4,0.3-15.4-0.6c-5.3-0.9-11.2-2-17.5-5.9c-0.9-0.6-1.8-1.1-2.5-1.7
					c-2.3-1.5-4.1-2.7-6.9-3c-3.1-0.3-5.7,0.8-7.6,1.5c-6.3,2.6-10.3,4.9-13.5,6.7c-3.3,1.8-5.8,3.3-9.2,4.3
					c-4.2,1.3-8.7,1.6-13.6,1c-0.9-0.1-1.7,0.1-2.4,0.7c-0.6,0.5-1,1.2-1.1,2c-0.1,0.8,0.3,1.1,0.8,1.3
					C253.9,330.1,255.2,330.4,256.5,330.6z"/>
			</g>
		</g>
	</g>
	<g>
		<g>
			<g>
				<line class="st7" x1="337.4" y1="328.9" x2="343.9" y2="328.1"/>
			</g>
		</g>
	</g>
	<g>
		<g>
			<g>
				<path class="st6" d="M299.8,353.8c-2.5,0-4.7-0.4-6.4-0.7c-2.6-0.5-5.2-1.2-7.9-2.2c-3.5-1.4-5.4-2.6-7.2-3.8
					c-1.7-1.1-3.3-2.2-6.2-3.3c-2-0.7-3-0.9-4.2-1c-1.1-0.2-2.4-0.3-4.5-1c-4.5-1.4-8.7-3.5-12.6-6.5l1.2-1.6
					c3.7,2.8,7.7,4.9,12,6.2c2,0.6,3.1,0.8,4.2,0.9c1.3,0.2,2.5,0.4,4.6,1.1c3.1,1.1,4.8,2.3,6.6,3.5c1.7,1.2,3.5,2.4,6.8,3.6
					c2.5,1,5.1,1.7,7.5,2.1c2.9,0.5,6.5,1.1,10.8,0.1c0.7-0.2,2.8-0.7,5.3-1.9c2.8-1.4,4.4-2.8,6.2-4.5c1-0.9,2.1-2,3.6-3.1
					c3.2-2.5,5.5-4.3,9.2-5.4c2.3-0.7,4-0.8,5.5-0.9c1.8-0.1,3.3-0.2,5.5-1.3c2.8-1.4,4.5-3.2,4.5-3.7c-0.4-0.5-3.4-0.5-4.6-0.5
					c-2.7,0-5.2,0.3-7.7,1l-0.5-1.9c2.7-0.7,5.5-1.1,8.2-1.1c3,0.1,6,0.1,6.6,2c0.9,2.8-5.3,6-5.5,6.1c-2.6,1.3-4.4,1.4-6.3,1.5
					c-1.5,0.1-3,0.2-5,0.8c-3.3,1-5.5,2.7-8.5,5.1c-1.4,1.1-2.4,2.1-3.5,3c-1.9,1.8-3.6,3.4-6.7,4.9c-2.7,1.3-5,1.9-5.7,2
					C303.1,353.7,301.4,353.8,299.8,353.8z"/>
			</g>
		</g>
	</g>
	<g>
		<g>
			<g>
				<path class="st1" d="M266.2,331.8c1.4-0.5,2.8-0.9,4.2-1.4l4-1.8c1.9-1.1,3.9-2.2,5.8-3.4c2.6-1.3,5.3-2.6,7.9-4
					c1.9-0.8,3.7-1.5,5.6-2.3c0.9-0.2,1.8-0.3,2.7-0.5c0.6,0,1.2-0.1,1.8-0.1c0.8,0.1,1.5,0.3,2.3,0.4l2.1,0.5l1,0.8l1,0.5l2.1,1.5
					l1.8,1.2l3.3,1.8c0.6,0.2,1.2,0.5,1.8,0.7c0.5,0.2,1.1,0.4,1.6,0.6l2.5,0.8c0.9,0.2,1.8,0.5,2.6,0.7c1,0.2,2,0.4,3,0.7
					c1.2,0.2,2.3,0.3,3.5,0.5c0.7,0.1,1.5,0.3,2.2,0.4c-1.7,0.4-3.4,0.9-5.1,1.3l-2.7,1.3l-6.4,3.8l-5.4,4.4l-4.8,3.7
					c-0.7,0.4-1.4,0.8-2.2,1.2c-0.6,0.2-1.1,0.3-1.7,0.5h-1.6h-2.7l-2.5-0.6l-3.3-1l-1.9-1.2l-5.9-4.5l-4.2-2.4l-3.3-1.2l-3.4-1.1
					c-0.6-0.2-1.3-0.5-2-0.7C268.7,332.4,267.4,332.1,266.2,331.8z"/>
			</g>
		</g>
	</g>
	<g>
		<g>
			<g>
				<circle class="st6" cx="297.6" cy="331.4" r="6.9"/>
			</g>
		</g>
	</g>
	<g>
		<g>
			<g>
				<circle class="st1" cx="297.6" cy="331.4" r="3.2"/>
			</g>
		</g>
	</g>
</g>
<g class="st8">
	<g>
		<g>
			<path class="st2" d="M194.3,494.2l-9.6-13.8h7.5l5.4,8l5.4-8h7.4l-9.6,13.8v12.9h-6.6V494.2z M207.9,481.7h-3.8l-5.4,7.9l1.8,2.7
				L207.9,481.7z"/>
		</g>
	</g>
	<g>
		<g>
			<path class="st2" d="M213.2,480.5h6.6v16.7c0,3.6,1.7,4.8,4,4.8c2.5,0,4.1-1.2,4.1-4.8v-16.7h6.6v17.7c0,6.3-4.8,9.9-10.7,9.9
				c-6.2,0-10.6-3.7-10.6-9.9V480.5z M218.2,491.2v-9.5h-3.3v9.5H218.2z M232.8,491.2v-9.5h-3.3v9.5H232.8z"/>
		</g>
	</g>
	<g>
		<g>
			<path class="st2" d="M253.3,479.6c5,0,8.5,1.8,11.3,4.7l-4.6,4.2c-1.8-1.6-4.1-2.7-6.7-2.7c-4.8,0-7.9,3.6-7.9,8c0,4.9,3.6,8,8,8
				c4.7,0,7-2.6,7.2-5.2h-7.7V491h14.8v2.5c0,7.9-4.7,14.4-14.5,14.4c-8.5,0-14.6-6.3-14.6-14.2S244.7,479.6,253.3,479.6z
				 M244.1,491c1.1-3.8,4.5-6.5,9.2-6.5c2.4,0,4.7,0.8,6.6,2.1l2.6-2.5c-2.3-2.2-5.3-3.3-9.2-3.3c-6.6,0-11.5,4.3-12.7,10.2H244.1z"
				/>
		</g>
	</g>
	<g>
		<g>
			<path class="st2" d="M272.1,480.5h6.6v26.7h-6.6V480.5z M277,505.9v-9.5h-3.3v9.5H277z"/>
		</g>
	</g>
	<g>
		<g>
			<path class="st2" d="M294.4,480.5h6.2l6.9,14.4l6.9-14.4h6.1v26.7h-6.6v-11.9L308,508h-1.1l-5.9-12.8v12h-6.6V480.5z
				 M299.4,505.9v-14.6l-3.3-7.3v21.9H299.4z M313.9,491.8v-6.8l-5.5,11.6l1.5,3.6L313.9,491.8z"/>
		</g>
	</g>
	<g>
		<g>
			<path class="st2" d="M339.6,479.6c8.5,0,14.5,6.3,14.5,14.2s-6,14.2-14.5,14.2c-8.5,0-14.5-6.3-14.5-14.2S331,479.6,339.6,479.6z
				 M339.6,506.7c6.5,0,11.4-4.3,12.6-10.1h-3.5c-1.1,3.9-4.4,6.6-9.1,6.6s-8-2.8-9.1-6.6H327C328.2,502.5,333.1,506.7,339.6,506.7z
				 M339.6,501.8c4.8,0,7.8-3.6,7.8-8s-3.1-8-7.8-8c-4.8,0-7.8,3.6-7.8,8S334.8,501.8,339.6,501.8z"/>
		</g>
	</g>
	<g>
		<g>
			<path class="st2" d="M361.6,486.2h-6v-5.8h18.8v5.8h-6.1v20.9h-6.7V486.2z M366.7,505.9v-19.6h-3.5v19.6H366.7z"/>
		</g>
	</g>
	<g>
		<g>
			<path class="st2" d="M390.5,479.6c8.5,0,14.5,6.3,14.5,14.2s-6,14.2-14.5,14.2c-8.5,0-14.5-6.3-14.5-14.2
				S381.9,479.6,390.5,479.6z M390.5,506.7c6.5,0,11.4-4.3,12.6-10.1h-3.5c-1.1,3.9-4.4,6.6-9.1,6.6c-4.7,0-8-2.8-9.1-6.6h-3.5
				C379,502.5,383.9,506.7,390.5,506.7z M390.5,501.8c4.8,0,7.8-3.6,7.8-8s-3.1-8-7.8-8c-4.8,0-7.8,3.6-7.8,8
				S385.6,501.8,390.5,501.8z"/>
		</g>
	</g>
</g>
</svg>
