<?xml version="1.0" encoding="utf-8"?>
<!-- Generator: Adobe Illustrator 27.4.0, SVG Export Plug-In . SVG Version: 6.00 Build 0)  -->
<svg version="1.1" id="Lager_1" xmlns="http://www.w3.org/2000/svg" xmlns:xlink="http://www.w3.org/1999/xlink" x="0px" y="0px"
	 viewBox="0 0 595.28 841.89" style="enable-background:new 0 0 595.28 841.89;" xml:space="preserve">
<style type="text/css">
	.st0{fill:#010202;stroke:#D1D119;stroke-width:8;stroke-miterlimit:10;}
	.st1{fill:#010202;stroke:#B9144C;stroke-width:10;stroke-miterlimit:10;}
	.st2{fill:none;stroke:#D1D119;stroke-miterlimit:10;}
	.st3{fill:#B9144C;}
	.st4{fill:#010202;}
	.st5{fill:none;stroke:#D1D119;stroke-width:10;stroke-miterlimit:10;}
	.st6{fill:#EFE865;stroke:#8C883B;stroke-width:2;stroke-miterlimit:10;}
	.st7{fill:none;stroke:#8C883B;stroke-width:2;stroke-miterlimit:10;}
	.st8{fill:#6A6A20;}
	.st9{fill:#8C883B;}
</style>
<path class="st0" d="M702.06,220.23"/>
<g>
	<polygon class="st1" points="363.33,262.51 352.1,266.28 351.49,262.12 	"/>
	<path class="st2" d="M245.3,159.1"/>
	<polygon class="st3" points="411.28,245.21 343.88,231.79 345.79,259.05 	"/>
	<polygon class="st3" points="196.11,183.34 275.83,205.62 255.27,241.23 	"/>
	<path class="st3" d="M294.84,147.1l-38.14,80.57h76.28L294.84,147.1z"/>
	<polygon class="st3" points="396.62,187.38 316.9,209.67 337.46,245.28 	"/>
	<polygon class="st3" points="187.95,245.21 255.36,231.79 253.44,259.05 	"/>
	<polygon class="st1" points="236.49,261.94 247.71,265.71 248.32,261.56 	"/>
	<path class="st4" d="M351.38,269.24c8.6-2.99,17.21-5.98,25.81-8.96l-27.94-1.96l2.41-7.06l30.27-7.03l-41.27-11.16l11.62-9.48
		L383,193.62l-37.3,16.44l5.81-5.59l-31.18,7.95l-20.48-37.3l-2.14,17.58l-3.97-35.77l-25.38,54.73l-62.06-21.71l40.2,29.2
		l-10.24-1.68l16.97,17.73l-6.27,5.35l-24.46,7.22l28.13,6.38l-6.45,6.73l-24.74-1.84l22.97,7.34l7.02,2.39
		c0.56-0.97,1.12-1.94,1.68-2.9"/>
</g>
<g>
	<circle class="st5" cx="298.28" cy="254.25" r="30.15"/>
	<polygon class="st6" points="297.64,454.43 418.93,265.73 176.35,265.73 	"/>
	<polyline class="st7" points="267.49,265.73 267.49,294.15 231.13,294.15 249.31,315.71 236.64,328.63 263.24,351.86 243.73,363.3 
		279.29,364.59 297.64,395.96 297.64,424.39 278.33,424.39 316.95,424.39 	"/>
	<polyline class="st7" points="327.71,265.73 327.71,294.15 364.06,294.15 345.89,315.71 358.56,328.63 331.96,351.86 351.6,363.71 
		315.91,364.59 297.56,395.96 297.56,424.39 316.87,424.39 278.25,424.39 	"/>
	<polyline class="st7" points="288.46,265.73 288.46,293.69 307.33,293.69 307.33,265.73 	"/>
	<polyline class="st7" points="388.89,265.73 388.89,273.06 400.82,273.06 391.19,289.4 399.62,295.78 	"/>
	<polyline class="st7" points="207.51,265.65 207.51,272.97 195.58,272.97 205.21,289.31 196.78,295.69 	"/>
	<path class="st7" d="M252.05,335.05c-0.82-0.67-1.62-1.49-1.43-2.15c0.59-2.02,10.3-1.65,18.34,0.57
		c3.19,0.88,11.93,3.29,18.23,8.83c0.61,0.54,1.74,1.58,3.55,2.52c0.69,0.36,5.53,2.79,10.78,1.49c3-0.74,4.73-2.36,6.88-4.13
		c7.55-6.21,12.03-9.89,17.89-11.12c2.68-0.56,13.46-2.26,16.28-2.52c0.14-0.01,0.71-0.06,1.32-0.41c1-0.57,1.92-1.85,1.81-3.05
		c-0.06-0.71-0.49-1.29-1-1.75c-0.88-0.79-2.09-1.11-3.26-1c-6.43,0.6-11.61,0.03-15.14-0.6c-5.25-0.94-11.01-1.97-17.2-5.73
		c-3.74-2.28-5.77-4.43-9.86-4.82c-3.26-0.31-5.82,0.69-8.03,1.61c-12.48,5.2-16.01,8.98-22.7,11.01
		c-2.91,0.88-7.27,1.69-13.16,0.94c-2.25-0.29-4.41,1.31-4.59,3.57c-0.08,1,0.26,1.89,1.46,2.3c7.14,2.38,12.69,0.56,16.05-0.46
		c6.69-2.03,10.22-5.8,22.7-11.01c2.2-0.92,4.77-1.92,8.03-1.61c4.09,0.39,6.11,2.53,9.86,4.82c6.18,3.77,11.95,4.79,17.2,5.73
		c3.77,0.67,9.45,1.28,16.51,0.46"/>
	<line class="st8" x1="337.41" y1="328.92" x2="343.89" y2="328.14"/>
	<path class="st7" d="M251.31,334.51c2.65,2,6.75,4.62,12.27,6.31c4.38,1.34,4.85,0.62,8.83,2.06c6.02,2.19,6.63,4.45,13.41,7.11
		c3.38,1.32,6.14,1.91,7.68,2.18c3.07,0.54,6.8,1.16,11.24,0.11c0.81-0.19,2.95-0.7,5.5-1.95c4.54-2.23,5.92-4.61,9.97-7.8
		c3.2-2.51,5.41-4.22,8.83-5.27c4.81-1.48,6.87-0.06,11.16-2.2c2.51-1.26,5.44-3.57,5.01-4.91c-0.38-1.18-3.31-1.22-5.62-1.26
		c-3.31-0.05-6.05,0.5-7.95,1.03"/>
	<path class="st4" d="M266.25,331.76c1.42-0.46,2.83-0.92,4.25-1.38l3.97-1.75c1.93-1.13,3.86-2.25,5.79-3.38
		c2.64-1.32,5.27-2.64,7.91-3.96c1.86-0.76,3.73-1.53,5.59-2.29c0.91-0.16,1.82-0.31,2.72-0.47c0.58-0.04,1.17-0.09,1.75-0.13
		c0.77,0.15,1.54,0.29,2.3,0.44l2.06,0.54l0.99,0.76l0.98,0.46l2.15,1.53l1.83,1.22l3.29,1.8c0.59,0.24,1.18,0.47,1.78,0.71
		c0.53,0.21,1.06,0.42,1.59,0.63l2.45,0.76c0.87,0.24,1.75,0.48,2.62,0.73c1.01,0.22,2.03,0.44,3.04,0.66
		c1.16,0.16,2.31,0.32,3.47,0.49c0.74,0.14,1.47,0.29,2.21,0.43c-1.71,0.43-3.43,0.86-5.14,1.29l-2.69,1.3l-6.4,3.82l-5.43,4.36
		l-4.75,3.67c-0.72,0.4-1.44,0.81-2.16,1.21c-0.58,0.16-1.15,0.31-1.73,0.47h-1.61h-2.68l-2.45-0.6l-3.26-1l-1.93-1.22l-5.89-4.54
		l-4.2-2.41l-3.29-1.22l-3.44-1.15c-0.64-0.24-1.3-0.47-1.99-0.69C268.68,332.41,267.43,332.06,266.25,331.76z"/>
	<circle class="st9" cx="297.64" cy="331.36" r="6.94"/>
	<circle class="st4" cx="297.64" cy="331.36" r="3.21"/>
</g>
</svg>
